<svg width="188" height="16" viewBox="0 0 188 16" fill="none" xmlns="http://www.w3.org/2000/svg">
<path d="M3.25085 13H1.20792L1.22105 11.6928H3.25085C3.84205 11.6928 4.33691 11.5636 4.73542 11.3052C5.13831 11.0468 5.44048 10.6768 5.64193 10.1951C5.84776 9.71336 5.95067 9.13967 5.95067 8.47402V7.95508C5.95067 7.43832 5.89155 6.98069 5.77331 6.58218C5.65945 6.18366 5.48866 5.84865 5.26093 5.57713C5.03759 5.30562 4.7617 5.09979 4.43325 4.95966C4.10918 4.81952 3.73476 4.74945 3.30997 4.74945H1.1685V3.43567H3.30997C3.94496 3.43567 4.52522 3.54296 5.05073 3.75755C5.57624 3.96775 6.0295 4.27211 6.41049 4.67062C6.79587 5.06914 7.09147 5.54648 7.29729 6.10265C7.50312 6.65881 7.60603 7.28067 7.60603 7.96822V8.47402C7.60603 9.16157 7.50312 9.78342 7.29729 10.3396C7.09147 10.8958 6.79587 11.3731 6.41049 11.7716C6.02512 12.1657 5.56529 12.4701 5.03102 12.6847C4.50113 12.8949 3.90774 13 3.25085 13ZM2.12099 3.43567V13H0.472198V3.43567H2.12099ZM13.0148 11.5745V8.18499C13.0148 7.93099 12.9688 7.71203 12.8768 7.5281C12.7849 7.34417 12.6447 7.20184 12.4564 7.10112C12.2725 7.0004 12.0404 6.95004 11.7601 6.95004C11.5017 6.95004 11.2784 6.99383 11.0901 7.08141C10.9018 7.169 10.7551 7.28724 10.65 7.43613C10.5449 7.58503 10.4923 7.75363 10.4923 7.94194H8.91578C8.91578 7.66167 8.98366 7.39015 9.11942 7.1274C9.25517 6.86464 9.45224 6.63035 9.71062 6.42452C9.969 6.2187 10.2777 6.05666 10.6368 5.93842C10.9959 5.82018 11.3988 5.76106 11.8455 5.76106C12.3798 5.76106 12.8527 5.85084 13.2644 6.03039C13.6804 6.20994 14.0067 6.48145 14.2432 6.84493C14.484 7.20403 14.6045 7.6551 14.6045 8.19813V11.3578C14.6045 11.6818 14.6264 11.9731 14.6701 12.2314C14.7183 12.4854 14.7862 12.7066 14.8738 12.8949V13H13.2513C13.1768 12.8292 13.1177 12.6124 13.0739 12.3497C13.0345 12.0825 13.0148 11.8242 13.0148 11.5745ZM13.2447 8.67766L13.2578 9.65643H12.1214C11.828 9.65643 11.5696 9.68489 11.3463 9.74182C11.1229 9.79437 10.9368 9.8732 10.7879 9.9783C10.639 10.0834 10.5274 10.2104 10.4529 10.3593C10.3785 10.5082 10.3412 10.6768 10.3412 10.8651C10.3412 11.0534 10.385 11.2264 10.4726 11.384C10.5602 11.5373 10.6872 11.6578 10.8536 11.7453C11.0244 11.8329 11.2302 11.8767 11.4711 11.8767C11.7952 11.8767 12.0776 11.811 12.3185 11.6796C12.5637 11.5439 12.7564 11.3797 12.8965 11.187C13.0367 10.9899 13.1111 10.8038 13.1199 10.6286L13.6323 11.3315C13.5797 11.511 13.4899 11.7037 13.3629 11.9096C13.2359 12.1154 13.0695 12.3125 12.8637 12.5008C12.6622 12.6847 12.4192 12.8358 12.1345 12.954C11.8543 13.0723 11.5302 13.1314 11.1623 13.1314C10.6981 13.1314 10.2843 13.0394 9.92082 12.8555C9.55734 12.6672 9.27269 12.4154 9.06686 12.1001C8.86104 11.7804 8.75813 11.4191 8.75813 11.0162C8.75813 10.6396 8.82819 10.3067 8.96833 10.0177C9.11285 9.7243 9.32305 9.47906 9.59895 9.282C9.87922 9.08493 10.2208 8.93604 10.6237 8.83531C11.0266 8.73021 11.4864 8.67766 12.0032 8.67766H13.2447ZM17.7469 7.3376V13H16.1638V5.89244H17.655L17.7469 7.3376ZM17.4907 9.18346L16.9521 9.1769C16.9521 8.68642 17.0134 8.23316 17.136 7.81713C17.2586 7.4011 17.4382 7.03981 17.6747 6.73326C17.9111 6.42233 18.2046 6.18366 18.5549 6.01725C18.9096 5.84646 19.3191 5.76106 19.7833 5.76106C20.1074 5.76106 20.403 5.80923 20.6701 5.90558C20.9416 5.99754 21.1759 6.14425 21.373 6.3457C21.5744 6.54714 21.7277 6.80552 21.8328 7.12083C21.9423 7.43613 21.997 7.81713 21.997 8.26382V13H20.4139V8.40176C20.4139 8.0558 20.3614 7.78429 20.2562 7.58722C20.1555 7.39015 20.0088 7.25002 19.8161 7.16681C19.6278 7.07922 19.4023 7.03543 19.1395 7.03543C18.8417 7.03543 18.5877 7.09236 18.3775 7.20622C18.1717 7.32008 18.0031 7.47555 17.8717 7.67262C17.7404 7.86968 17.644 8.0974 17.5827 8.35578C17.5214 8.61416 17.4907 8.89005 17.4907 9.18346ZM21.8985 8.76305L21.1562 8.92728C21.1562 8.49811 21.2153 8.09303 21.3336 7.71203C21.4562 7.32665 21.6335 6.98945 21.8656 6.70042C22.1021 6.40701 22.3933 6.17709 22.7393 6.01068C23.0853 5.84427 23.4816 5.76106 23.9283 5.76106C24.2917 5.76106 24.6158 5.81142 24.9005 5.91215C25.1895 6.00849 25.4347 6.16177 25.6362 6.37197C25.8376 6.58218 25.9909 6.85588 26.096 7.19308C26.2011 7.52591 26.2537 7.9288 26.2537 8.40176V13H24.664V8.3952C24.664 8.03609 24.6114 7.75801 24.5063 7.56094C24.4056 7.36388 24.2611 7.22812 24.0728 7.15367C23.8845 7.07484 23.6589 7.03543 23.3962 7.03543C23.1509 7.03543 22.9342 7.08141 22.7459 7.17338C22.5619 7.26096 22.4065 7.38577 22.2795 7.54781C22.1525 7.70546 22.0561 7.8872 21.9904 8.09303C21.9291 8.29885 21.8985 8.52219 21.8985 8.76305ZM30.7231 13H28.6801L28.6933 11.6928H30.7231C31.3143 11.6928 31.8091 11.5636 32.2076 11.3052C32.6105 11.0468 32.9127 10.6768 33.1141 10.1951C33.32 9.71336 33.4229 9.13967 33.4229 8.47402V7.95508C33.4229 7.43832 33.3638 6.98069 33.2455 6.58218C33.1317 6.18366 32.9609 5.84865 32.7331 5.57713C32.5098 5.30562 32.2339 5.09979 31.9055 4.95966C31.5814 4.81952 31.207 4.74945 30.7822 4.74945H28.6407V3.43567H30.7822C31.4172 3.43567 31.9974 3.54296 32.5229 3.75755C33.0484 3.96775 33.5017 4.27211 33.8827 4.67062C34.2681 5.06914 34.5637 5.54648 34.7695 6.10265C34.9753 6.65881 35.0782 7.28067 35.0782 7.96822V8.47402C35.0782 9.16157 34.9753 9.78342 34.7695 10.3396C34.5637 10.8958 34.2681 11.3731 33.8827 11.7716C33.4973 12.1657 33.0375 12.4701 32.5032 12.6847C31.9733 12.8949 31.3799 13 30.7231 13ZM29.5932 3.43567V13H27.9444V3.43567H29.5932ZM40.8154 11.5286V2.91016H42.4051V13H40.9665L40.8154 11.5286ZM36.1909 9.52505V9.3871C36.1909 8.84845 36.2544 8.35797 36.3814 7.91566C36.5084 7.46898 36.6923 7.08579 36.9332 6.76611C37.1741 6.44204 37.4675 6.19461 37.8134 6.02382C38.1594 5.84865 38.5492 5.76106 38.9827 5.76106C39.4119 5.76106 39.7885 5.84427 40.1126 6.01068C40.4366 6.17709 40.7125 6.41576 40.9402 6.72669C41.168 7.03324 41.3497 7.4011 41.4855 7.83027C41.6212 8.25506 41.7176 8.72802 41.7745 9.24915V9.68927C41.7176 10.1973 41.6212 10.6615 41.4855 11.0819C41.3497 11.5023 41.168 11.8658 40.9402 12.1723C40.7125 12.4789 40.4344 12.7153 40.106 12.8818C39.7819 13.0482 39.4031 13.1314 38.9696 13.1314C38.5404 13.1314 38.1528 13.0416 37.8069 12.8621C37.4653 12.6825 37.1741 12.4307 36.9332 12.1066C36.6923 11.7826 36.5084 11.4016 36.3814 10.9636C36.2544 10.5213 36.1909 10.0418 36.1909 9.52505ZM37.774 9.3871V9.52505C37.774 9.84911 37.8025 10.1513 37.8594 10.4316C37.9207 10.7118 38.0149 10.9593 38.1419 11.1738C38.2689 11.384 38.4331 11.5505 38.6346 11.6731C38.8404 11.7913 39.0856 11.8504 39.3703 11.8504C39.7294 11.8504 40.025 11.7716 40.2571 11.614C40.4892 11.4563 40.6709 11.2439 40.8023 10.9768C40.9381 10.7053 41.03 10.4031 41.0782 10.0703V8.88129C41.0519 8.62292 40.9972 8.38206 40.914 8.15871C40.8351 7.93537 40.7278 7.74049 40.5921 7.57408C40.4563 7.40329 40.2877 7.27191 40.0863 7.17995C39.8892 7.0836 39.6549 7.03543 39.3834 7.03543C39.0944 7.03543 38.8491 7.09674 38.6477 7.21936C38.4462 7.34198 38.2798 7.51058 38.1485 7.72517C38.0215 7.93975 37.9273 8.18937 37.866 8.47402C37.8047 8.75867 37.774 9.06303 37.774 9.3871ZM47.9715 11.5745V8.18499C47.9715 7.93099 47.9255 7.71203 47.8336 7.5281C47.7416 7.34417 47.6015 7.20184 47.4132 7.10112C47.2292 7.0004 46.9971 6.95004 46.7168 6.95004C46.4585 6.95004 46.2351 6.99383 46.0468 7.08141C45.8585 7.169 45.7118 7.28724 45.6067 7.43613C45.5016 7.58503 45.449 7.75363 45.449 7.94194H43.8725C43.8725 7.66167 43.9404 7.39015 44.0761 7.1274C44.2119 6.86464 44.409 6.63035 44.6673 6.42452C44.9257 6.2187 45.2345 6.05666 45.5936 5.93842C45.9527 5.82018 46.3556 5.76106 46.8022 5.76106C47.3365 5.76106 47.8095 5.85084 48.2211 6.03039C48.6372 6.20994 48.9634 6.48145 49.1999 6.84493C49.4408 7.20403 49.5612 7.6551 49.5612 8.19813V11.3578C49.5612 11.6818 49.5831 11.9731 49.6269 12.2314C49.675 12.4854 49.7429 12.7066 49.8305 12.8949V13H48.208C48.1335 12.8292 48.0744 12.6124 48.0306 12.3497C47.9912 12.0825 47.9715 11.8242 47.9715 11.5745ZM48.2014 8.67766L48.2146 9.65643H47.0781C46.7847 9.65643 46.5263 9.68489 46.303 9.74182C46.0797 9.79437 45.8935 9.8732 45.7446 9.9783C45.5958 10.0834 45.4841 10.2104 45.4096 10.3593C45.3352 10.5082 45.298 10.6768 45.298 10.8651C45.298 11.0534 45.3418 11.2264 45.4293 11.384C45.5169 11.5373 45.6439 11.6578 45.8103 11.7453C45.9811 11.8329 46.187 11.8767 46.4278 11.8767C46.7519 11.8767 47.0343 11.811 47.2752 11.6796C47.5204 11.5439 47.7131 11.3797 47.8533 11.187C47.9934 10.9899 48.0679 10.8038 48.0766 10.6286L48.589 11.3315C48.5364 11.511 48.4467 11.7037 48.3197 11.9096C48.1927 12.1154 48.0262 12.3125 47.8204 12.5008C47.619 12.6847 47.3759 12.8358 47.0913 12.954C46.811 13.0723 46.4869 13.1314 46.1191 13.1314C45.6549 13.1314 45.241 13.0394 44.8776 12.8555C44.5141 12.6672 44.2294 12.4154 44.0236 12.1001C43.8178 11.7804 43.7149 11.4191 43.7149 11.0162C43.7149 10.6396 43.7849 10.3067 43.9251 10.0177C44.0696 9.7243 44.2798 9.47906 44.5557 9.282C44.8359 9.08493 45.1775 8.93604 45.5804 8.83531C45.9833 8.73021 46.4431 8.67766 46.9599 8.67766H48.2014ZM54.3944 12.2117C54.3944 11.9665 54.4776 11.7607 54.644 11.5943C54.8104 11.4235 55.036 11.3381 55.3206 11.3381C55.6096 11.3381 55.8352 11.4235 55.9972 11.5943C56.1636 11.7607 56.2468 11.9665 56.2468 12.2117C56.2468 12.457 56.1636 12.6628 55.9972 12.8292C55.8352 12.9956 55.6096 13.0788 55.3206 13.0788C55.036 13.0788 54.8104 12.9956 54.644 12.8292C54.4776 12.6628 54.3944 12.457 54.3944 12.2117ZM54.401 6.61502C54.401 6.36978 54.4842 6.16396 54.6506 5.99754C54.817 5.82675 55.0425 5.74136 55.3272 5.74136C55.6162 5.74136 55.8417 5.82675 56.0038 5.99754C56.1702 6.16396 56.2534 6.36978 56.2534 6.61502C56.2534 6.86026 56.1702 7.06609 56.0038 7.2325C55.8417 7.39891 55.6162 7.48212 55.3272 7.48212C55.0425 7.48212 54.817 7.39891 54.6506 7.2325C54.4842 7.06609 54.401 6.86026 54.401 6.61502ZM65.0674 11.0753C65.0674 10.9177 65.028 10.7753 64.9491 10.6483C64.8703 10.517 64.7192 10.3987 64.4959 10.2936C64.2769 10.1885 63.9529 10.0922 63.5237 10.0046C63.1471 9.92137 62.8011 9.82284 62.4858 9.70898C62.1749 9.59074 61.9077 9.44841 61.6844 9.282C61.461 9.11559 61.2881 8.91852 61.1654 8.6908C61.0428 8.46307 60.9815 8.20032 60.9815 7.90253C60.9815 7.61349 61.045 7.33979 61.172 7.08141C61.299 6.82304 61.4808 6.59531 61.7172 6.39825C61.9537 6.20118 62.2406 6.04572 62.5778 5.93185C62.9193 5.81799 63.3003 5.76106 63.7207 5.76106C64.3163 5.76106 64.8265 5.86179 65.2513 6.06323C65.6805 6.2603 66.0089 6.52962 66.2366 6.87121C66.4644 7.20841 66.5782 7.58941 66.5782 8.0142H64.9951C64.9951 7.82589 64.9469 7.65072 64.8506 7.48869C64.7586 7.32227 64.6185 7.18871 64.4302 7.08798C64.2419 6.98288 64.0054 6.93033 63.7207 6.93033C63.4492 6.93033 63.2237 6.97412 63.0442 7.06171C62.869 7.14491 62.7376 7.25439 62.65 7.39015C62.5668 7.52591 62.5252 7.6748 62.5252 7.83684C62.5252 7.95508 62.5471 8.06237 62.5909 8.15871C62.6391 8.25068 62.7179 8.33607 62.8274 8.4149C62.9369 8.48935 63.0858 8.55942 63.2741 8.62511C63.4668 8.6908 63.7076 8.7543 63.9966 8.81561C64.5397 8.92947 65.0061 9.07617 65.3958 9.25572C65.79 9.43089 66.0921 9.65862 66.3023 9.93889C66.5125 10.2148 66.6176 10.5651 66.6176 10.9899C66.6176 11.3052 66.5498 11.5943 66.414 11.857C66.2826 12.1154 66.0899 12.3409 65.8359 12.5336C65.5819 12.7219 65.2776 12.8686 64.9229 12.9737C64.5725 13.0788 64.1784 13.1314 63.7405 13.1314C63.0967 13.1314 62.5515 13.0175 62.1048 12.7898C61.6581 12.5577 61.3187 12.2621 61.0866 11.903C60.8589 11.5395 60.745 11.1629 60.745 10.7731H62.2756C62.2931 11.0666 62.3741 11.3008 62.5186 11.476C62.6675 11.6468 62.8515 11.7716 63.0704 11.8504C63.2938 11.9249 63.5237 11.9621 63.7602 11.9621C64.0448 11.9621 64.2835 11.9249 64.4762 11.8504C64.6689 11.7716 64.8156 11.6665 64.9163 11.5351C65.017 11.3994 65.0674 11.2461 65.0674 11.0753ZM69.4974 7.25877V15.7327H67.9142V5.89244H69.3725L69.4974 7.25877ZM74.1284 9.38053V9.51848C74.1284 10.0352 74.0671 10.5148 73.9445 10.9571C73.8263 11.395 73.6489 11.7782 73.4124 12.1066C73.1803 12.4307 72.8935 12.6825 72.5519 12.8621C72.2103 13.0416 71.8162 13.1314 71.3695 13.1314C70.9272 13.1314 70.5396 13.0504 70.2068 12.8883C69.8783 12.7219 69.6003 12.4876 69.3725 12.1855C69.1448 11.8833 68.9609 11.5286 68.8208 11.1213C68.685 10.7096 68.5887 10.2586 68.5317 9.7681V9.23602C68.5887 8.71488 68.685 8.24192 68.8208 7.81713C68.9609 7.39234 69.1448 7.02667 69.3725 6.72012C69.6003 6.41357 69.8783 6.17709 70.2068 6.01068C70.5352 5.84427 70.9184 5.76106 71.3564 5.76106C71.803 5.76106 72.1994 5.84865 72.5453 6.02382C72.8913 6.19461 73.1825 6.43985 73.419 6.75954C73.6555 7.07484 73.8328 7.45584 73.9511 7.90253C74.0693 8.34483 74.1284 8.8375 74.1284 9.38053ZM72.5453 9.51848V9.38053C72.5453 9.05209 72.5147 8.74773 72.4534 8.46745C72.3921 8.1828 72.2957 7.93318 72.1643 7.7186C72.033 7.50401 71.8643 7.3376 71.6585 7.21936C71.4571 7.09674 71.214 7.03543 70.9294 7.03543C70.6491 7.03543 70.4082 7.0836 70.2068 7.17995C70.0053 7.27191 69.8367 7.4011 69.701 7.56751C69.5652 7.73392 69.4601 7.9288 69.3857 8.15215C69.3112 8.37111 69.2587 8.60978 69.228 8.86816V10.1425C69.2806 10.4578 69.3704 10.7469 69.4974 11.0096C69.6244 11.2724 69.8039 11.4826 70.036 11.6402C70.2725 11.7935 70.5747 11.8701 70.9425 11.8701C71.2272 11.8701 71.4702 11.8088 71.6717 11.6862C71.8731 11.5636 72.0373 11.395 72.1643 11.1804C72.2957 10.9614 72.3921 10.7096 72.4534 10.425C72.5147 10.1403 72.5453 9.83817 72.5453 9.51848ZM78.5124 13.1314C77.9869 13.1314 77.5118 13.046 77.087 12.8752C76.6666 12.7 76.3075 12.457 76.0097 12.146C75.7163 11.8351 75.4907 11.4694 75.3331 11.049C75.1754 10.6286 75.0966 10.1754 75.0966 9.68927V9.42651C75.0966 8.87035 75.1776 8.36673 75.3396 7.91566C75.5017 7.4646 75.7272 7.07922 76.0162 6.75954C76.3053 6.43547 76.6469 6.18804 77.041 6.01725C77.4351 5.84646 77.8621 5.76106 78.3219 5.76106C78.8299 5.76106 79.2744 5.84646 79.6554 6.01725C80.0364 6.18804 80.3517 6.4289 80.6013 6.73983C80.8553 7.04638 81.0436 7.41205 81.1663 7.83684C81.2933 8.26163 81.3568 8.73021 81.3568 9.24258V9.91918H75.8652V8.78276H79.7934V8.65795C79.7846 8.3733 79.7277 8.10616 79.6226 7.85654C79.5219 7.60693 79.3664 7.40548 79.1562 7.2522C78.946 7.09893 78.6657 7.02229 78.3154 7.02229C78.0526 7.02229 77.8183 7.07922 77.6125 7.19308C77.411 7.30257 77.2424 7.46241 77.1067 7.67262C76.9709 7.88282 76.8658 8.13682 76.7914 8.43461C76.7213 8.72802 76.6863 9.05865 76.6863 9.42651V9.68927C76.6863 10.0002 76.7279 10.2892 76.8111 10.5564C76.8987 10.8191 77.0257 11.049 77.1921 11.2461C77.3585 11.4432 77.5599 11.5986 77.7964 11.7125C78.0329 11.822 78.3022 11.8767 78.6044 11.8767C78.9854 11.8767 79.3248 11.8001 79.6226 11.6468C79.9204 11.4935 80.1787 11.2768 80.3977 10.9965L81.232 11.8045C81.0787 12.0278 80.8794 12.2424 80.6342 12.4482C80.3889 12.6497 80.089 12.8139 79.7342 12.9409C79.3839 13.0679 78.9766 13.1314 78.5124 13.1314ZM85.3992 11.8701C85.6576 11.8701 85.8897 11.8198 86.0955 11.7191C86.3057 11.614 86.4743 11.4694 86.6013 11.2855C86.7327 11.1016 86.8049 10.8892 86.8181 10.6483H88.3092C88.3004 11.1082 88.1647 11.5264 87.9019 11.903C87.6392 12.2796 87.291 12.5796 86.8575 12.8029C86.4239 13.0219 85.9444 13.1314 85.4189 13.1314C84.8759 13.1314 84.4029 13.0394 84 12.8555C83.5971 12.6672 83.2621 12.4088 82.995 12.0804C82.7278 11.7519 82.5264 11.3731 82.3906 10.9439C82.2592 10.5148 82.1936 10.0549 82.1936 9.56446V9.33455C82.1936 8.84407 82.2592 8.38425 82.3906 7.95508C82.5264 7.52153 82.7278 7.14053 82.995 6.81209C83.2621 6.48364 83.5971 6.22746 84 6.04353C84.4029 5.85522 84.8737 5.76106 85.4123 5.76106C85.9816 5.76106 86.4809 5.87492 86.91 6.10265C87.3392 6.32599 87.6764 6.63911 87.9216 7.042C88.1713 7.44051 88.3004 7.90472 88.3092 8.43461H86.8181C86.8049 8.17185 86.7392 7.93537 86.621 7.72517C86.5071 7.51058 86.3451 7.33979 86.1349 7.21279C85.9291 7.08579 85.6816 7.02229 85.3926 7.02229C85.0729 7.02229 84.808 7.08798 84.5978 7.21936C84.3876 7.34636 84.2233 7.52153 84.1051 7.74487C83.9869 7.96384 83.9015 8.21127 83.8489 8.48716C83.8007 8.75867 83.7767 9.04114 83.7767 9.33455V9.56446C83.7767 9.85787 83.8007 10.1425 83.8489 10.4184C83.8971 10.6943 83.9803 10.9417 84.0985 11.1607C84.2212 11.3753 84.3876 11.5483 84.5978 11.6796C84.808 11.8066 85.0751 11.8701 85.3992 11.8701ZM91.1232 5.89244V13H89.5336V5.89244H91.1232ZM89.4285 4.02687C89.4285 3.78601 89.5073 3.58675 89.6649 3.4291C89.827 3.26707 90.0503 3.18605 90.335 3.18605C90.6152 3.18605 90.8364 3.26707 90.9984 3.4291C91.1605 3.58675 91.2415 3.78601 91.2415 4.02687C91.2415 4.26335 91.1605 4.46042 90.9984 4.61807C90.8364 4.77573 90.6152 4.85455 90.335 4.85455C90.0503 4.85455 89.827 4.77573 89.6649 4.61807C89.5073 4.46042 89.4285 4.26335 89.4285 4.02687ZM96.7685 11.5745V8.18499C96.7685 7.93099 96.7225 7.71203 96.6305 7.5281C96.5385 7.34417 96.3984 7.20184 96.2101 7.10112C96.0262 7.0004 95.7941 6.95004 95.5138 6.95004C95.2554 6.95004 95.0321 6.99383 94.8438 7.08141C94.6555 7.169 94.5088 7.28724 94.4036 7.43613C94.2985 7.58503 94.246 7.75363 94.246 7.94194H92.6695C92.6695 7.66167 92.7373 7.39015 92.8731 7.1274C93.0089 6.86464 93.2059 6.63035 93.4643 6.42452C93.7227 6.2187 94.0314 6.05666 94.3905 5.93842C94.7496 5.82018 95.1525 5.76106 95.5992 5.76106C96.1335 5.76106 96.6064 5.85084 97.0181 6.03039C97.4341 6.20994 97.7604 6.48145 97.9968 6.84493C98.2377 7.20403 98.3581 7.6551 98.3581 8.19813V11.3578C98.3581 11.6818 98.38 11.9731 98.4238 12.2314C98.472 12.4854 98.5399 12.7066 98.6275 12.8949V13H97.0049C96.9305 12.8292 96.8714 12.6124 96.8276 12.3497C96.7882 12.0825 96.7685 11.8242 96.7685 11.5745ZM96.9984 8.67766L97.0115 9.65643H95.8751C95.5817 9.65643 95.3233 9.68489 95.1 9.74182C94.8766 9.79437 94.6905 9.8732 94.5416 9.9783C94.3927 10.0834 94.281 10.2104 94.2066 10.3593C94.1321 10.5082 94.0949 10.6768 94.0949 10.8651C94.0949 11.0534 94.1387 11.2264 94.2263 11.384C94.3139 11.5373 94.4409 11.6578 94.6073 11.7453C94.7781 11.8329 94.9839 11.8767 95.2248 11.8767C95.5488 11.8767 95.8313 11.811 96.0722 11.6796C96.3174 11.5439 96.5101 11.3797 96.6502 11.187C96.7904 10.9899 96.8648 10.8038 96.8736 10.6286L97.3859 11.3315C97.3334 11.511 97.2436 11.7037 97.1166 11.9096C96.9896 12.1154 96.8232 12.3125 96.6174 12.5008C96.4159 12.6847 96.1729 12.8358 95.8882 12.954C95.6079 13.0723 95.2839 13.1314 94.916 13.1314C94.4518 13.1314 94.038 13.0394 93.6745 12.8555C93.311 12.6672 93.0264 12.4154 92.8205 12.1001C92.6147 11.7804 92.5118 11.4191 92.5118 11.0162C92.5118 10.6396 92.5819 10.3067 92.722 10.0177C92.8665 9.7243 93.0767 9.47906 93.3526 9.282C93.6329 9.08493 93.9745 8.93604 94.3774 8.83531C94.7803 8.73021 95.2401 8.67766 95.7568 8.67766H96.9984ZM101.612 2.91016V13H100.023V2.91016H101.612Z" fill="#858899"/>
<path d="M112.922 11.6928V13H107.845V11.6928H112.922ZM108.311 3.43567V13H106.662V3.43567H108.311ZM112.259 7.42957V8.71707H107.845V7.42957H112.259ZM112.89 3.43567V4.74945H107.845V3.43567H112.89ZM115.224 5.89244L116.577 8.25068L117.957 5.89244H119.698L117.543 9.38053L119.783 13H118.042L116.597 10.5432L115.152 13H113.405L115.638 9.38053L113.49 5.89244H115.224ZM122.249 2.91016V13H120.672V2.91016H122.249ZM121.973 9.18346L121.461 9.1769C121.465 8.68642 121.533 8.23316 121.664 7.81713C121.8 7.4011 121.988 7.03981 122.229 6.73326C122.474 6.42233 122.768 6.18366 123.109 6.01725C123.451 5.84646 123.83 5.76106 124.246 5.76106C124.596 5.76106 124.911 5.80923 125.192 5.90558C125.476 6.00192 125.722 6.15739 125.927 6.37197C126.133 6.58218 126.289 6.85807 126.394 7.19965C126.503 7.53686 126.558 7.94851 126.558 8.43461V13H124.968V8.42147C124.968 8.07989 124.918 7.80837 124.817 7.60693C124.721 7.40548 124.579 7.26096 124.39 7.17338C124.202 7.08141 123.972 7.03543 123.701 7.03543C123.416 7.03543 123.164 7.09236 122.945 7.20622C122.731 7.32008 122.551 7.47555 122.406 7.67262C122.262 7.86968 122.152 8.0974 122.078 8.35578C122.008 8.61416 121.973 8.89005 121.973 9.18346ZM129.76 5.89244V13H128.17V5.89244H129.76ZM128.065 4.02687C128.065 3.78601 128.144 3.58675 128.301 3.4291C128.463 3.26707 128.687 3.18605 128.971 3.18605C129.252 3.18605 129.473 3.26707 129.635 3.4291C129.797 3.58675 129.878 3.78601 129.878 4.02687C129.878 4.26335 129.797 4.46042 129.635 4.61807C129.473 4.77573 129.252 4.85455 128.971 4.85455C128.687 4.85455 128.463 4.77573 128.301 4.61807C128.144 4.46042 128.065 4.26335 128.065 4.02687ZM131.404 2.91016H132.987V11.4826L132.836 13H131.404V2.91016ZM137.625 9.38053V9.51848C137.625 10.044 137.566 10.5279 137.448 10.9702C137.334 11.4081 137.159 11.7891 136.922 12.1132C136.69 12.4373 136.401 12.6891 136.055 12.8686C135.714 13.0438 135.317 13.1314 134.866 13.1314C134.424 13.1314 134.038 13.0482 133.71 12.8818C133.382 12.7153 133.106 12.4789 132.882 12.1723C132.663 11.8658 132.486 11.5001 132.35 11.0753C132.215 10.6505 132.118 10.1819 132.061 9.66956V9.22945C132.118 8.71269 132.215 8.24411 132.35 7.8237C132.486 7.39891 132.663 7.03324 132.882 6.72669C133.106 6.41576 133.379 6.17709 133.703 6.01068C134.032 5.84427 134.415 5.76106 134.853 5.76106C135.308 5.76106 135.709 5.84865 136.055 6.02382C136.405 6.19899 136.697 6.44861 136.929 6.77267C137.161 7.09236 137.334 7.47336 137.448 7.91566C137.566 8.35797 137.625 8.84626 137.625 9.38053ZM136.042 9.51848V9.38053C136.042 9.06084 136.016 8.76086 135.963 8.48059C135.911 8.19594 135.823 7.94632 135.7 7.73174C135.582 7.51715 135.42 7.34855 135.214 7.22593C135.013 7.09893 134.761 7.03543 134.459 7.03543C134.179 7.03543 133.938 7.0836 133.736 7.17995C133.535 7.27629 133.366 7.40767 133.23 7.57408C133.095 7.74049 132.987 7.93318 132.909 8.15215C132.834 8.37111 132.784 8.60759 132.758 8.86159V10.0506C132.797 10.379 132.88 10.6812 133.007 10.9571C133.139 11.2286 133.322 11.4475 133.559 11.614C133.795 11.776 134.1 11.857 134.472 11.857C134.765 11.857 135.013 11.7979 135.214 11.6796C135.416 11.5614 135.576 11.3972 135.694 11.187C135.816 10.9724 135.904 10.7228 135.957 10.4381C136.014 10.1535 136.042 9.84692 136.042 9.51848ZM140.564 5.89244V13H138.974V5.89244H140.564ZM138.869 4.02687C138.869 3.78601 138.948 3.58675 139.106 3.4291C139.268 3.26707 139.491 3.18605 139.776 3.18605C140.056 3.18605 140.277 3.26707 140.439 3.4291C140.601 3.58675 140.682 3.78601 140.682 4.02687C140.682 4.26335 140.601 4.46042 140.439 4.61807C140.277 4.77573 140.056 4.85455 139.776 4.85455C139.491 4.85455 139.268 4.77573 139.106 4.61807C138.948 4.46042 138.869 4.26335 138.869 4.02687ZM145.46 5.89244V7.04857H141.453V5.89244H145.46ZM142.609 4.15168H144.193V11.0359C144.193 11.2549 144.223 11.4235 144.284 11.5417C144.35 11.6556 144.44 11.7322 144.554 11.7716C144.668 11.811 144.801 11.8307 144.955 11.8307C145.064 11.8307 145.169 11.8242 145.27 11.811C145.371 11.7979 145.452 11.7848 145.513 11.7716L145.519 12.9803C145.388 13.0197 145.235 13.0547 145.06 13.0854C144.889 13.1161 144.692 13.1314 144.468 13.1314C144.105 13.1314 143.783 13.0679 143.503 12.9409C143.223 12.8095 143.004 12.5971 142.846 12.3037C142.688 12.0103 142.609 11.6205 142.609 11.1344V4.15168ZM148.281 5.89244V13H146.691V5.89244H148.281ZM146.586 4.02687C146.586 3.78601 146.665 3.58675 146.823 3.4291C146.985 3.26707 147.208 3.18605 147.493 3.18605C147.773 3.18605 147.994 3.26707 148.156 3.4291C148.318 3.58675 148.399 3.78601 148.399 4.02687C148.399 4.26335 148.318 4.46042 148.156 4.61807C147.994 4.77573 147.773 4.85455 147.493 4.85455C147.208 4.85455 146.985 4.77573 146.823 4.61807C146.665 4.46042 146.586 4.26335 146.586 4.02687ZM149.617 9.52505V9.37396C149.617 8.86159 149.691 8.38644 149.84 7.94851C149.989 7.5062 150.204 7.12302 150.484 6.79895C150.769 6.4705 151.115 6.21651 151.522 6.03696C151.934 5.85303 152.398 5.76106 152.915 5.76106C153.436 5.76106 153.9 5.85303 154.307 6.03696C154.719 6.21651 155.067 6.4705 155.352 6.79895C155.636 7.12302 155.853 7.5062 156.002 7.94851C156.151 8.38644 156.225 8.86159 156.225 9.37396V9.52505C156.225 10.0374 156.151 10.5126 156.002 10.9505C155.853 11.3884 155.636 11.7716 155.352 12.1001C155.067 12.4241 154.721 12.6781 154.314 12.8621C153.906 13.0416 153.444 13.1314 152.928 13.1314C152.407 13.1314 151.94 13.0416 151.528 12.8621C151.121 12.6781 150.775 12.4241 150.491 12.1001C150.206 11.7716 149.989 11.3884 149.84 10.9505C149.691 10.5126 149.617 10.0374 149.617 9.52505ZM151.2 9.37396V9.52505C151.2 9.84473 151.233 10.1469 151.299 10.4316C151.364 10.7162 151.467 10.9658 151.607 11.1804C151.747 11.395 151.927 11.5636 152.146 11.6862C152.365 11.8088 152.625 11.8701 152.928 11.8701C153.221 11.8701 153.475 11.8088 153.69 11.6862C153.909 11.5636 154.088 11.395 154.228 11.1804C154.368 10.9658 154.471 10.7162 154.537 10.4316C154.607 10.1469 154.642 9.84473 154.642 9.52505V9.37396C154.642 9.05865 154.607 8.76086 154.537 8.48059C154.471 8.19594 154.366 7.94413 154.222 7.72517C154.082 7.5062 153.902 7.33541 153.683 7.21279C153.468 7.08579 153.212 7.02229 152.915 7.02229C152.617 7.02229 152.358 7.08579 152.139 7.21279C151.925 7.33541 151.747 7.5062 151.607 7.72517C151.467 7.94413 151.364 8.19594 151.299 8.48059C151.233 8.76086 151.2 9.05865 151.2 9.37396ZM159.026 7.40986V13H157.443V5.89244H158.934L159.026 7.40986ZM158.744 9.18346L158.231 9.1769C158.236 8.67328 158.306 8.21127 158.441 7.79086C158.582 7.37045 158.774 7.00916 159.02 6.70699C159.269 6.40482 159.567 6.17271 159.913 6.01068C160.259 5.84427 160.644 5.76106 161.069 5.76106C161.411 5.76106 161.719 5.80923 161.995 5.90558C162.276 5.99754 162.514 6.14863 162.711 6.35883C162.913 6.56904 163.066 6.84274 163.171 7.17995C163.276 7.51277 163.329 7.92223 163.329 8.40833V13H161.739V8.40176C161.739 8.06018 161.689 7.79086 161.588 7.59379C161.492 7.39234 161.349 7.25002 161.161 7.16681C160.977 7.07922 160.747 7.03543 160.471 7.03543C160.2 7.03543 159.957 7.09236 159.742 7.20622C159.528 7.32008 159.346 7.47555 159.197 7.67262C159.052 7.86968 158.941 8.0974 158.862 8.35578C158.783 8.61416 158.744 8.89005 158.744 9.18346Z" fill="#1D6CE0"/>
<path d="M173.797 13.9417H187.25V0.488594H173.797V13.9417Z" fill="url(#paint0_linear_13_14292)"/>
<defs>
<linearGradient id="paint0_linear_13_14292" x1="-2.30876e+06" y1="-39169.7" x2="-2.30875e+06" y2="-38597.8" gradientUnits="userSpaceOnUse">
<stop stop-color="#CF80FD"/>
<stop offset="1" stop-color="#903EDB"/>
</linearGradient>
</defs>
</svg>
