<svg width="25" height="23" viewBox="0 0 25 23" fill="none" xmlns="http://www.w3.org/2000/svg">
<g id="Icon">
<path id="Vector" d="M5.48808 1.17383H20.1619C20.921 1.17383 21.5691 1.44238 22.1062 1.97949C22.6433 2.5166 22.9119 3.16471 22.9119 3.92383V18.5762C22.9119 19.3353 22.6433 19.9834 22.1062 20.5205C21.5691 21.0576 20.921 21.3262 20.1619 21.3262H5.48808C4.72896 21.3262 4.08085 21.0576 3.54374 20.5205C3.00663 19.9834 2.73808 19.3353 2.73808 18.5762V3.92383C2.73808 3.16471 3.00663 2.5166 3.54374 1.97949C4.08085 1.44238 4.72896 1.17383 5.48808 1.17383ZM19.9471 5.77148V5.51367H15.951L13.115 12.6035L9.87089 5.51367H5.70292V5.77148L7.05643 7.38281C7.11373 7.4401 7.16028 7.51172 7.19608 7.59766C7.23189 7.68359 7.24263 7.76953 7.22831 7.85547H7.20683V14.2363C7.22115 14.3509 7.21399 14.4655 7.18534 14.5801C7.15669 14.6947 7.0994 14.7878 7.01347 14.8594L5.48808 16.707V16.9434H9.78495V16.707L8.28104 14.8594C8.19511 14.7878 8.13423 14.6947 8.09843 14.5801C8.06262 14.4655 8.05188 14.3509 8.0662 14.2363V8.71484L11.8475 16.9434H12.2771L15.5213 8.71484V15.2891C15.5213 15.375 15.5177 15.4323 15.5105 15.4609C15.5034 15.4896 15.4711 15.5397 15.4139 15.6113L14.2537 16.7285V16.9863H19.9041V16.7285L18.7869 15.6328C18.7439 15.5898 18.7117 15.5397 18.6902 15.4824C18.6687 15.4251 18.658 15.3678 18.658 15.3105V7.18945C18.658 7.13216 18.6687 7.07487 18.6902 7.01758C18.7117 6.96029 18.7439 6.91016 18.7869 6.86719L19.9471 5.77148Z" fill="#9E9E9E"/>
</g>
</svg>
