<svg width="25" height="23" viewBox="0 0 25 23" fill="none" xmlns="http://www.w3.org/2000/svg">
<g id="Icon">
<path id="Vector" d="M5.31808 1.17383H19.9919C20.751 1.17383 21.3991 1.44238 21.9362 1.97949C22.4734 2.5166 22.7419 3.16471 22.7419 3.92383V18.5762C22.7419 19.3353 22.4734 19.9834 21.9362 20.5205C21.3991 21.0576 20.751 21.3262 19.9919 21.3262H5.31808C4.55896 21.3262 3.91085 21.0576 3.37374 20.5205C2.83663 19.9834 2.56808 19.3353 2.56808 18.5762V3.92383C2.56808 3.16471 2.83663 2.5166 3.37374 1.97949C3.91085 1.44238 4.55896 1.17383 5.31808 1.17383ZM9.16378 17.6738V9.10156H6.45675V17.6738H9.16378ZM7.81026 7.91992C8.23995 7.91992 8.60877 7.76953 8.91671 7.46875C9.22465 7.16797 9.37862 6.80273 9.37862 6.37305C9.37862 5.95768 9.22465 5.59603 8.91671 5.28809C8.60877 4.98014 8.23995 4.82617 7.81026 4.82617C7.38058 4.82617 7.01176 4.97656 6.70382 5.27734C6.39588 5.57812 6.24191 5.94336 6.24191 6.37305C6.24191 6.80273 6.39588 7.16797 6.70382 7.46875C7.01176 7.76953 7.38058 7.91992 7.81026 7.91992ZM19.3044 17.6738V12.9688C19.3044 11.8086 19.1075 10.8382 18.7136 10.0576C18.3197 9.27702 17.4353 8.88672 16.0603 8.88672C15.4014 8.88672 14.8536 9.03353 14.4167 9.32715C13.9799 9.62077 13.6755 9.93229 13.5036 10.2617H13.4607V9.10156H10.861V17.6738H13.5681V13.4199C13.5681 12.8613 13.6612 12.3564 13.8474 11.9053C14.0336 11.4541 14.4776 11.2285 15.1794 11.2285C15.8812 11.2285 16.293 11.4827 16.4148 11.9912C16.5365 12.4997 16.5974 12.9974 16.5974 13.4844V17.6738H19.3044Z" fill="#9E9E9E"/>
</g>
</svg>
