<svg width="25" height="23" viewBox="0 0 25 23" fill="none" xmlns="http://www.w3.org/2000/svg">
<g id="Icon" clip-path="url(#clip0_3_1540)">
<path id="Vector" d="M23.1857 11.3145C23.1857 9.7819 22.8921 8.34961 22.3049 7.01758C21.732 5.67122 20.9478 4.49674 19.9523 3.49414C18.9569 2.49154 17.7932 1.69662 16.4611 1.10938C15.1291 0.536459 13.704 0.25 12.1857 0.25C10.6675 0.25 9.23522 0.536459 7.88886 1.10938C6.55683 1.69662 5.39309 2.49154 4.39765 3.49414C3.40221 4.49674 2.61803 5.67122 2.04511 7.01758C1.4722 8.34961 1.18574 9.7819 1.18574 11.3145C1.18574 12.7038 1.42207 14.0143 1.89472 15.2461C2.36738 16.4779 3.01907 17.5771 3.8498 18.5439C4.68053 19.5107 5.66165 20.3164 6.79316 20.9609C7.92467 21.6198 9.14928 22.0495 10.467 22.25V14.5156H7.67402V11.3145H10.467V8.88672C10.467 7.4974 10.843 6.43034 11.5949 5.68555C12.3469 4.94076 13.3531 4.56836 14.6135 4.56836C15.215 4.56836 15.7772 4.60417 16.3 4.67578C16.8228 4.7474 17.0842 4.7832 17.0842 4.7832V7.51172H15.6877C15.0002 7.51172 14.5311 7.69075 14.2805 8.04883C14.0298 8.4069 13.9045 8.80078 13.9045 9.23047V11.3145H16.9553L16.4611 14.5156H13.9045V22.25C15.2079 22.0495 16.4253 21.6198 17.5568 20.9609C18.6883 20.3164 19.673 19.5107 20.5109 18.5439C21.3488 17.5771 22.0041 16.4779 22.4768 15.2461C22.9494 14.0143 23.1857 12.7038 23.1857 11.3145Z" fill="#9E9E9E"/>
</g>
<defs>
<clipPath id="clip0_3_1540">
<rect width="23.83" height="22" fill="white" transform="matrix(1 0 0 -1 0.259995 22.25)"/>
</clipPath>
</defs>
</svg>
