<svg width="25" height="23" viewBox="0 0 25 23" fill="none" xmlns="http://www.w3.org/2000/svg">
<g id="Icon" clip-path="url(#clip0_3_1534)">
<path id="Vector" d="M19.9182 1.17383C20.5198 1.17383 21.0855 1.28841 21.6155 1.51758C22.1311 1.73242 22.5859 2.03678 22.9798 2.43066C23.3736 2.82454 23.6852 3.28646 23.9143 3.81641C24.1435 4.33203 24.2581 4.89062 24.2581 5.49219V14.1934C24.2581 14.7949 24.1435 15.3535 23.9143 15.8691C23.6995 16.3991 23.3951 16.861 23.0012 17.2549C22.6074 17.6488 22.1454 17.9603 21.6155 18.1895C21.0855 18.4186 20.527 18.5332 19.9397 18.5332H14.5901L12.3557 22.25L10.0999 18.5332H4.77174C4.17018 18.5332 3.60443 18.4186 3.07448 18.1895C2.55885 17.9603 2.1041 17.6488 1.71022 17.2549C1.31634 16.861 1.00482 16.3991 0.77565 15.8691C0.546483 15.3535 0.4319 14.7949 0.4319 14.1934V5.49219C0.4319 4.90495 0.546483 4.34635 0.77565 3.81641C1.00482 3.28646 1.31634 2.82454 1.71022 2.43066C2.1041 2.03678 2.55885 1.73242 3.07448 1.51758C3.60443 1.28841 4.17018 1.17383 4.77174 1.17383H19.9182ZM5.67409 13.1191C6.27565 13.1191 6.76979 12.8936 7.15651 12.4424C7.54323 11.9912 7.73659 11.4577 7.73659 10.8418C7.73659 10.2402 7.54323 9.71745 7.15651 9.27344C6.76979 8.82943 6.27565 8.60742 5.67409 8.60742C5.44492 8.60742 5.21575 8.65397 4.98659 8.74707C4.75742 8.84017 4.56406 8.97982 4.40651 9.16602V6.82422H2.96706V12.9688H4.40651V12.4961H4.42799C4.5569 12.6966 4.73594 12.8506 4.9651 12.958C5.19427 13.0654 5.4306 13.1191 5.67409 13.1191ZM10.3577 12.9688V9.12305C10.3577 8.33529 10.1572 7.72656 9.75612 7.29688C9.35508 6.86719 8.83229 6.65234 8.18776 6.65234V8.11328C8.48854 8.15625 8.67832 8.30306 8.7571 8.55371C8.83587 8.80436 8.87526 9.08724 8.87526 9.40234V12.9688H10.3577ZM13.7737 13.1191C14.4326 13.1191 15.009 12.9222 15.5032 12.5283C15.9973 12.1344 16.2444 11.5794 16.2444 10.8633C16.2444 10.1328 15.9973 9.57064 15.5032 9.17676C15.009 8.78288 14.4326 8.58594 13.7737 8.58594C13.1148 8.58594 12.5419 8.78288 12.0549 9.17676C11.568 9.57064 11.3245 10.1328 11.3245 10.8633C11.3245 11.5794 11.568 12.1344 12.0549 12.5283C12.5419 12.9222 13.1148 13.1191 13.7737 13.1191ZM19.2952 15.2676C20.0829 15.2676 20.6845 15.042 21.0999 14.5908C21.5152 14.1396 21.7229 13.4629 21.7229 12.5605V8.71484H20.3049V9.1875H20.2835C20.1259 8.98698 19.9433 8.83659 19.7356 8.73633C19.5279 8.63607 19.3023 8.58594 19.0589 8.58594C18.443 8.58594 17.9417 8.8151 17.5549 9.27344C17.1682 9.73177 16.9749 10.2689 16.9749 10.8848C16.9749 11.5007 17.1611 12.0163 17.5335 12.4316C17.9059 12.847 18.3928 13.0547 18.9944 13.0547C19.2665 13.0547 19.5029 13.0046 19.7034 12.9043C19.9039 12.804 20.1044 12.6608 20.3049 12.4746V12.668C20.3049 13.026 20.2333 13.3232 20.0901 13.5596C19.9469 13.7959 19.6747 13.9141 19.2737 13.9141H19.0159V15.2676H19.2952ZM5.30885 9.91797C5.59531 9.91797 5.8209 10.0111 5.98561 10.1973C6.15032 10.3835 6.23268 10.6055 6.23268 10.8633C6.23268 11.1354 6.15032 11.361 5.98561 11.54C5.8209 11.7191 5.59531 11.8086 5.30885 11.8086C5.00807 11.8086 4.77532 11.7191 4.61061 11.54C4.4459 11.361 4.36354 11.1354 4.36354 10.8633C4.36354 10.6055 4.4459 10.3835 4.61061 10.1973C4.77532 10.0111 5.00807 9.91797 5.30885 9.91797ZM13.7737 9.91797C14.0745 9.91797 14.3072 10.0111 14.4719 10.1973C14.6367 10.3835 14.719 10.6055 14.719 10.8633C14.719 11.1354 14.6367 11.361 14.4719 11.54C14.3072 11.7191 14.0745 11.8086 13.7737 11.8086C13.4872 11.8086 13.2617 11.7191 13.0969 11.54C12.9322 11.361 12.8499 11.1354 12.8499 10.8633C12.8499 10.6055 12.9322 10.3835 13.0969 10.1973C13.2617 10.0111 13.4872 9.91797 13.7737 9.91797ZM19.4241 9.875C19.7249 9.875 19.954 9.97168 20.1116 10.165C20.2691 10.3584 20.3479 10.584 20.3479 10.8418C20.3479 11.0996 20.2691 11.3216 20.1116 11.5078C19.954 11.694 19.7249 11.7871 19.4241 11.7871C19.1233 11.7871 18.8941 11.694 18.7366 11.5078C18.579 11.3216 18.5003 11.0996 18.5003 10.8418C18.5003 10.584 18.579 10.3584 18.7366 10.165C18.8941 9.97168 19.1233 9.875 19.4241 9.875Z" fill="#9E9E9E"/>
</g>
<defs>
<clipPath id="clip0_3_1534">
<rect width="23.83" height="22" fill="white" transform="matrix(1 0 0 -1 0.429993 22.25)"/>
</clipPath>
</defs>
</svg>
