<svg width="14" height="15" viewBox="0 0 14 15" fill="none" xmlns="http://www.w3.org/2000/svg">
<g id="Icon">
<path id="Vector" d="M9.02377 5.11975H3.48666C3.2588 5.11975 3.06511 5.04 2.90561 4.88049C2.7461 4.72099 2.66635 4.5273 2.66635 4.29944C2.66635 4.08069 2.7461 3.88928 2.90561 3.72522C3.06511 3.56116 3.2588 3.47913 3.48666 3.47913H10.6644V10.6705C10.6644 10.8984 10.5846 11.0921 10.4251 11.2516C10.2656 11.4111 10.072 11.4908 9.84409 11.4908C9.61622 11.4908 9.42254 11.4111 9.26303 11.2516C9.10353 11.0921 9.02377 10.8984 9.02377 10.6705V5.11975ZM2.58432 10.4108L8.9144 4.06702C8.99643 3.9941 9.0853 3.93485 9.181 3.88928C9.2767 3.84371 9.3838 3.82092 9.50229 3.82092C9.73015 3.82092 9.92384 3.90068 10.0833 4.06018C10.2428 4.21969 10.3226 4.41337 10.3226 4.64124C10.3226 4.75973 10.2998 4.8691 10.2542 4.96936C10.2087 5.06962 10.1494 5.15621 10.0765 5.22913L3.74643 11.5592C3.6644 11.6412 3.57553 11.7028 3.47983 11.7438C3.38412 11.7848 3.27703 11.8053 3.15854 11.8053C2.93067 11.8053 2.73699 11.7255 2.57748 11.566C2.41798 11.4065 2.33823 11.2128 2.33823 10.985C2.33823 10.8756 2.36101 10.7708 2.40659 10.6705C2.45216 10.5703 2.5114 10.4837 2.58432 10.4108Z" fill="#9E9E9E"/>
</g>
</svg>
