<svg width="17" height="15" viewBox="0 0 17 15" fill="none" xmlns="http://www.w3.org/2000/svg">
<path d="M11.6904 5.11963H6.15332C5.92546 5.11963 5.73177 5.03988 5.57227 4.88037C5.41276 4.72087 5.33301 4.52718 5.33301 4.29932C5.33301 4.08057 5.41276 3.88916 5.57227 3.7251C5.73177 3.56104 5.92546 3.479 6.15332 3.479H13.3311V10.6704C13.3311 10.8983 13.2513 11.092 13.0918 11.2515C12.9323 11.411 12.7386 11.4907 12.5107 11.4907C12.2829 11.4907 12.0892 11.411 11.9297 11.2515C11.7702 11.092 11.6904 10.8983 11.6904 10.6704V5.11963ZM5.25098 10.4106L11.5811 4.06689C11.6631 3.99398 11.752 3.93473 11.8477 3.88916C11.9434 3.84359 12.0505 3.8208 12.1689 3.8208C12.3968 3.8208 12.5905 3.90055 12.75 4.06006C12.9095 4.21956 12.9893 4.41325 12.9893 4.64111C12.9893 4.7596 12.9665 4.86898 12.9209 4.96924C12.8753 5.0695 12.8161 5.15609 12.7432 5.229L6.41309 11.5591C6.33105 11.6411 6.24219 11.7026 6.14648 11.7437C6.05078 11.7847 5.94368 11.8052 5.8252 11.8052C5.59733 11.8052 5.40365 11.7254 5.24414 11.5659C5.08464 11.4064 5.00488 11.2127 5.00488 10.9849C5.00488 10.8755 5.02767 10.7707 5.07324 10.6704C5.11882 10.5701 5.17806 10.4836 5.25098 10.4106Z" fill="#9E9E9E"/>
</svg>
