<svg width="29" height="15" viewBox="0 0 29 15" fill="none" xmlns="http://www.w3.org/2000/svg">
<path d="M13.7793 10.0255C13.8887 10.1258 14.014 10.2055 14.1553 10.2648C14.2965 10.324 14.4447 10.3536 14.5996 10.3536C14.7637 10.3536 14.9163 10.324 15.0576 10.2648C15.1989 10.2055 15.3242 10.1258 15.4336 10.0255L15.7617 9.69739C15.7617 9.69739 15.7617 9.69511 15.7617 9.69055C15.7617 9.68599 15.7617 9.68372 15.7617 9.68372L19.3027 6.19739C19.3848 6.11536 19.4508 6.01965 19.501 5.91028C19.5511 5.8009 19.5762 5.68241 19.5762 5.55481C19.5762 5.42721 19.5511 5.30644 19.501 5.1925C19.4508 5.07857 19.3848 4.98059 19.3027 4.89856C19.2207 4.81653 19.1227 4.75273 19.0088 4.70715C18.8949 4.66158 18.7741 4.63879 18.6465 4.63879C18.5189 4.63879 18.3981 4.66158 18.2842 4.70715C18.1702 4.75273 18.0723 4.81653 17.9902 4.89856L14.5996 8.2345L11.2227 4.91223C11.1315 4.82109 11.0312 4.75273 10.9219 4.70715C10.8125 4.66158 10.694 4.63879 10.5664 4.63879C10.4297 4.63879 10.3066 4.66158 10.1973 4.70715C10.0879 4.75273 9.98763 4.82109 9.89648 4.91223C9.81445 4.99426 9.74837 5.08997 9.69824 5.19934C9.64811 5.30872 9.62305 5.42721 9.62305 5.55481C9.62305 5.68241 9.64811 5.8009 9.69824 5.91028C9.74837 6.01965 9.81445 6.11991 9.89648 6.21106L13.7793 10.0255Z" fill="white"/>
</svg>
