<svg width="32" height="32" viewBox="0 0 32 32" fill="none" xmlns="http://www.w3.org/2000/svg">
<rect width="32" height="32" rx="16" fill="#2B2D36"/>
<path fill-rule="evenodd" clip-rule="evenodd" d="M13.442 20.7036C9.438 20.7036 6.182 17.4476 6.182 13.4416C6.182 9.43763 9.438 6.18163 13.442 6.18163C17.448 6.18163 20.7041 9.43763 20.7041 13.4416C20.7041 17.4476 17.448 20.7036 13.442 20.7036ZM29.0001 26.7196L21.8541 19.5756C23.1161 17.8476 23.8861 15.7416 23.8861 13.4416C23.8861 7.68363 19.202 2.99963 13.442 2.99963C7.684 2.99963 3 7.68363 3 13.4416C3 19.1996 7.684 23.8856 13.442 23.8856C15.756 23.8856 17.876 23.1036 19.608 21.8276L26.7521 28.9696L29.0001 26.7196Z" fill="white"/>
</svg>
